<svg width="24" height="24" viewBox="0 0 24 24" fill="none" xmlns="http://www.w3.org/2000/svg">
<path d="M20.7253 13.5385C20.1684 11.3726 18.8305 9.48904 16.9687 8.25002H22.5C22.6989 8.25002 22.8897 8.17101 23.0303 8.03035C23.171 7.8897 23.25 7.69894 23.25 7.50002C23.25 7.30111 23.171 7.11035 23.0303 6.96969C22.8897 6.82904 22.6989 6.75002 22.5 6.75002H14.9062C14.741 6.10471 14.3657 5.53274 13.8395 5.12429C13.3133 4.71584 12.6661 4.49414 12 4.49414C11.3339 4.49414 10.6867 4.71584 10.1605 5.12429C9.63426 5.53274 9.25896 6.10471 9.09374 6.75002H1.49999C1.30107 6.75002 1.11031 6.82904 0.969656 6.96969C0.829004 7.11035 0.749987 7.30111 0.749987 7.50002C0.749987 7.69894 0.829004 7.8897 0.969656 8.03035C1.11031 8.17101 1.30107 8.25002 1.49999 8.25002H7.03124C5.16951 9.48904 3.83156 11.3726 3.27467 13.5385C2.55455 13.6534 1.90094 14.0266 1.43605 14.5885C0.971159 15.1503 0.726824 15.8622 0.748731 16.5911C0.770637 17.32 1.05729 18.016 1.55508 18.5489C2.05287 19.0818 2.72772 19.4151 3.45344 19.4866C4.17916 19.558 4.90606 19.3627 5.49822 18.9371C6.09037 18.5115 6.50724 17.8848 6.67088 17.1742C6.83451 16.4635 6.7337 15.7176 6.3873 15.0759C6.0409 14.4342 5.47262 13.9407 4.78874 13.6875C5.11075 12.5773 5.68321 11.5557 6.46206 10.7014C7.24091 9.84716 8.20538 9.18299 9.28124 8.76002C9.52195 9.27905 9.90605 9.71843 10.3883 10.0263C10.8705 10.3342 11.4307 10.4978 12.0028 10.4978C12.5749 10.4978 13.1351 10.3342 13.6173 10.0263C14.0995 9.71843 14.4837 9.27905 14.7244 8.76002C15.7992 9.1837 16.7625 9.84818 17.5404 10.7024C18.3182 11.5566 18.8898 12.5778 19.2112 13.6875C18.527 13.9398 17.9581 14.4326 17.6109 15.0739C17.2637 15.7152 17.162 16.461 17.3247 17.1718C17.4875 17.8827 17.9036 18.5099 18.4952 18.9362C19.0868 19.3625 19.8135 19.5588 20.5393 19.4882C21.2651 19.4177 21.9404 19.0851 22.4389 18.5528C22.9373 18.0206 23.2248 17.3249 23.2476 16.596C23.2704 15.8672 23.0269 15.1549 22.5627 14.5925C22.0985 14.0302 21.4453 13.6561 20.7253 13.5403V13.5385ZM5.24999 16.5C5.24999 16.7967 5.16201 17.0867 4.99719 17.3334C4.83237 17.5801 4.5981 17.7723 4.32401 17.8858C4.04992 17.9994 3.74832 18.0291 3.45735 17.9712C3.16638 17.9133 2.89911 17.7705 2.68933 17.5607C2.47955 17.3509 2.33669 17.0836 2.27881 16.7927C2.22093 16.5017 2.25064 16.2001 2.36417 15.926C2.4777 15.6519 2.66996 15.4176 2.91663 15.2528C3.1633 15.088 3.45331 15 3.74999 15C4.14781 15 4.52934 15.1581 4.81065 15.4394C5.09195 15.7207 5.24999 16.1022 5.24999 16.5ZM12 9.00002C11.7033 9.00002 11.4133 8.91205 11.1666 8.74723C10.92 8.58241 10.7277 8.34814 10.6142 8.07405C10.5006 7.79996 10.4709 7.49836 10.5288 7.20739C10.5867 6.91642 10.7295 6.64914 10.9393 6.43936C11.1491 6.22958 11.4164 6.08672 11.7074 6.02885C11.9983 5.97097 12.2999 6.00067 12.574 6.1142C12.8481 6.22774 13.0824 6.41999 13.2472 6.66667C13.412 6.91334 13.5 7.20335 13.5 7.50002C13.5 7.89785 13.342 8.27938 13.0606 8.56068C12.7793 8.84199 12.3978 9.00002 12 9.00002ZM20.25 18C19.9533 18 19.6633 17.912 19.4166 17.7472C19.17 17.5824 18.9777 17.3481 18.8642 17.074C18.7506 16.8 18.7209 16.4984 18.7788 16.2074C18.8367 15.9164 18.9795 15.6491 19.1893 15.4394C19.3991 15.2296 19.6664 15.0867 19.9574 15.0288C20.2483 14.971 20.5499 15.0007 20.824 15.1142C21.0981 15.2277 21.3324 15.42 21.4972 15.6667C21.662 15.9133 21.75 16.2034 21.75 16.5C21.75 16.8978 21.592 17.2794 21.3106 17.5607C21.0293 17.842 20.6478 18 20.25 18Z" fill="white"/>
</svg>
