<svg width="25" height="24" viewBox="0 0 25 24" fill="none" xmlns="http://www.w3.org/2000/svg">
<path d="M12.25 2.25C10.5667 2.24963 8.91195 2.68508 7.44685 3.51396C5.98176 4.34285 4.75622 5.53692 3.88953 6.97997C3.02283 8.42301 2.54451 10.0659 2.50111 11.7486C2.45771 13.4314 2.85071 15.0967 3.64187 16.5825L2.5778 19.7747C2.48967 20.039 2.47687 20.3226 2.54086 20.5938C2.60486 20.8649 2.7431 21.1129 2.9401 21.3099C3.13711 21.5069 3.38508 21.6451 3.65624 21.7091C3.92739 21.7731 4.21101 21.7603 4.4753 21.6722L7.66749 20.6081C8.97509 21.3036 10.4239 21.6921 11.9041 21.744C13.3842 21.7959 14.8567 21.51 16.2099 20.9079C17.563 20.3057 18.7612 19.4033 19.7134 18.269C20.6657 17.1346 21.347 15.7983 21.7057 14.3613C22.0644 12.9244 22.091 11.4246 21.7836 9.97578C21.4761 8.52701 20.8426 7.16732 19.9311 5.99992C19.0197 4.83253 17.8543 3.88811 16.5234 3.23836C15.1925 2.58861 13.731 2.25061 12.25 2.25ZM12.25 20.25C10.7997 20.251 9.37477 19.8691 8.11937 19.1428C8.02745 19.0895 7.92526 19.0563 7.81955 19.0455C7.71385 19.0347 7.60706 19.0464 7.50624 19.08L3.99999 20.25L5.16905 16.7438C5.20275 16.643 5.21466 16.5362 5.204 16.4305C5.19333 16.3248 5.16033 16.2226 5.10718 16.1306C4.19778 14.5584 3.83266 12.7299 4.06846 10.929C4.30426 9.12801 5.1278 7.4552 6.41132 6.17006C7.69485 4.88491 9.36661 4.05925 11.1673 3.82118C12.9679 3.5831 14.7968 3.94591 16.3702 4.85333C17.9437 5.76074 19.1736 7.16204 19.8694 8.83983C20.5651 10.5176 20.6877 12.3781 20.2182 14.1327C19.7487 15.8873 18.7132 17.4379 17.2725 18.5439C15.8318 19.65 14.0663 20.2497 12.25 20.25Z" fill="white"/>
</svg>
