<svg width="25" height="24" viewBox="0 0 25 24" fill="none" xmlns="http://www.w3.org/2000/svg">
<path d="M21.22 6.2017L12.97 1.68764C12.7495 1.56584 12.5018 1.50195 12.25 1.50195C11.9981 1.50195 11.7504 1.56584 11.53 1.68764L3.27997 6.20358C3.04436 6.33249 2.84769 6.52229 2.71049 6.75316C2.57328 6.98404 2.50058 7.24751 2.49997 7.51608V16.4823C2.50058 16.7509 2.57328 17.0144 2.71049 17.2452C2.84769 17.4761 3.04436 17.6659 3.27997 17.7948L11.53 22.3108C11.7504 22.4326 11.9981 22.4965 12.25 22.4965C12.5018 22.4965 12.7495 22.4326 12.97 22.3108L21.22 17.7948C21.4556 17.6659 21.6522 17.4761 21.7895 17.2452C21.9267 17.0144 21.9994 16.7509 22 16.4823V7.51701C21.9999 7.24797 21.9274 6.98391 21.7902 6.7525C21.6529 6.52108 21.456 6.33084 21.22 6.2017ZM12.25 3.00014L19.7818 7.12514L12.25 11.2501L4.71809 7.12514L12.25 3.00014ZM3.99997 8.43764L11.5 12.542V20.5848L3.99997 16.4833V8.43764ZM13 20.5848V12.5458L20.5 8.43764V16.4795L13 20.5848Z" fill="white"/>
</svg>
