<svg width="24" height="24" viewBox="0 0 24 24" fill="none" xmlns="http://www.w3.org/2000/svg">
<path d="M5 21.9998C4.71667 21.9998 4.47917 21.904 4.2875 21.7123C4.09583 21.5206 4 21.2831 4 20.9998C4 20.7165 4.09583 20.479 4.2875 20.2873C4.47917 20.0956 4.71667 19.9998 5 19.9998H19C19.2833 19.9998 19.5208 20.0956 19.7125 20.2873C19.9042 20.479 20 20.7165 20 20.9998C20 21.2831 19.9042 21.5206 19.7125 21.7123C19.5208 21.904 19.2833 21.9998 19 21.9998H5ZM12 18.5748C11.8667 18.5748 11.7417 18.554 11.625 18.5123C11.5083 18.4706 11.4 18.3998 11.3 18.2998L8.7 15.6998C8.51667 15.5165 8.42083 15.2873 8.4125 15.0123C8.40417 14.7373 8.5 14.4998 8.7 14.2998C8.88333 14.1165 9.1125 14.0206 9.3875 14.0123C9.6625 14.004 9.9 14.0915 10.1 14.2748L11 15.1498V5.8498L10.1 6.7248C9.91667 6.90814 9.6875 6.9998 9.4125 6.9998C9.1375 6.9998 8.9 6.89981 8.7 6.69981C8.51667 6.51647 8.425 6.28314 8.425 5.9998C8.425 5.71647 8.51667 5.48314 8.7 5.2998L11.3 2.6998C11.4 2.5998 11.5083 2.52897 11.625 2.4873C11.7417 2.44564 11.8667 2.4248 12 2.4248C12.1333 2.4248 12.2583 2.44564 12.375 2.4873C12.4917 2.52897 12.6 2.5998 12.7 2.6998L15.3 5.2998C15.4833 5.48314 15.5792 5.7123 15.5875 5.9873C15.5958 6.2623 15.5 6.49981 15.3 6.69981C15.1167 6.88314 14.8875 6.97897 14.6125 6.9873C14.3375 6.99564 14.1 6.90814 13.9 6.7248L13 5.8498V15.1498L13.9 14.2748C14.0833 14.0915 14.3125 13.9998 14.5875 13.9998C14.8625 13.9998 15.1 14.0998 15.3 14.2998C15.4833 14.4831 15.575 14.7165 15.575 14.9998C15.575 15.2831 15.4833 15.5165 15.3 15.6998L12.7 18.2998C12.6 18.3998 12.4917 18.4706 12.375 18.5123C12.2583 18.554 12.1333 18.5748 12 18.5748Z" fill="white"/>
</svg>
