<svg width="24" height="24" viewBox="0 0 24 24" fill="none" xmlns="http://www.w3.org/2000/svg">
<path d="M19 22C18.1667 22 17.4583 21.7083 16.875 21.125C16.2917 20.5417 16 19.8333 16 19C16 18.7667 16.025 18.5417 16.075 18.325C16.125 18.1083 16.2 17.9 16.3 17.7L6.3 7.7C6.1 7.8 5.89167 7.875 5.675 7.925C5.45833 7.975 5.23333 8 5 8C4.16667 8 3.45833 7.70833 2.875 7.125C2.29167 6.54167 2 5.83333 2 5C2 4.16667 2.29167 3.45833 2.875 2.875C3.45833 2.29167 4.16667 2 5 2C5.83333 2 6.54167 2.29167 7.125 2.875C7.70833 3.45833 8 4.16667 8 5C8 5.23333 7.975 5.45833 7.925 5.675C7.875 5.89167 7.8 6.1 7.7 6.3L17.7 16.3C17.9 16.2 18.1083 16.125 18.325 16.075C18.5417 16.025 18.7667 16 19 16C19.8333 16 20.5417 16.2917 21.125 16.875C21.7083 17.4583 22 18.1667 22 19C22 19.8333 21.7083 20.5417 21.125 21.125C20.5417 21.7083 19.8333 22 19 22Z" fill="white"/>
</svg>
