<svg width="25" height="24" viewBox="0 0 25 24" fill="none" xmlns="http://www.w3.org/2000/svg">
<path d="M8.5 6C8.5 5.80109 8.57902 5.61032 8.71967 5.46967C8.86032 5.32902 9.05109 5.25 9.25 5.25H20.5C20.6989 5.25 20.8897 5.32902 21.0303 5.46967C21.171 5.61032 21.25 5.80109 21.25 6C21.25 6.19891 21.171 6.38968 21.0303 6.53033C20.8897 6.67098 20.6989 6.75 20.5 6.75H9.25C9.05109 6.75 8.86032 6.67098 8.71967 6.53033C8.57902 6.38968 8.5 6.19891 8.5 6ZM20.5 11.25H9.25C9.05109 11.25 8.86032 11.329 8.71967 11.4697C8.57902 11.6103 8.5 11.8011 8.5 12C8.5 12.1989 8.57902 12.3897 8.71967 12.5303C8.86032 12.671 9.05109 12.75 9.25 12.75H20.5C20.6989 12.75 20.8897 12.671 21.0303 12.5303C21.171 12.3897 21.25 12.1989 21.25 12C21.25 11.8011 21.171 11.6103 21.0303 11.4697C20.8897 11.329 20.6989 11.25 20.5 11.25ZM20.5 17.25H9.25C9.05109 17.25 8.86032 17.329 8.71967 17.4697C8.57902 17.6103 8.5 17.8011 8.5 18C8.5 18.1989 8.57902 18.3897 8.71967 18.5303C8.86032 18.671 9.05109 18.75 9.25 18.75H20.5C20.6989 18.75 20.8897 18.671 21.0303 18.5303C21.171 18.3897 21.25 18.1989 21.25 18C21.25 17.8011 21.171 17.6103 21.0303 17.4697C20.8897 17.329 20.6989 17.25 20.5 17.25ZM5.5 5.25H4C3.80109 5.25 3.61032 5.32902 3.46967 5.46967C3.32902 5.61032 3.25 5.80109 3.25 6C3.25 6.19891 3.32902 6.38968 3.46967 6.53033C3.61032 6.67098 3.80109 6.75 4 6.75H5.5C5.69891 6.75 5.88968 6.67098 6.03033 6.53033C6.17098 6.38968 6.25 6.19891 6.25 6C6.25 5.80109 6.17098 5.61032 6.03033 5.46967C5.88968 5.32902 5.69891 5.25 5.5 5.25ZM5.5 11.25H4C3.80109 11.25 3.61032 11.329 3.46967 11.4697C3.32902 11.6103 3.25 11.8011 3.25 12C3.25 12.1989 3.32902 12.3897 3.46967 12.5303C3.61032 12.671 3.80109 12.75 4 12.75H5.5C5.69891 12.75 5.88968 12.671 6.03033 12.5303C6.17098 12.3897 6.25 12.1989 6.25 12C6.25 11.8011 6.17098 11.6103 6.03033 11.4697C5.88968 11.329 5.69891 11.25 5.5 11.25ZM5.5 17.25H4C3.80109 17.25 3.61032 17.329 3.46967 17.4697C3.32902 17.6103 3.25 17.8011 3.25 18C3.25 18.1989 3.32902 18.3897 3.46967 18.5303C3.61032 18.671 3.80109 18.75 4 18.75H5.5C5.69891 18.75 5.88968 18.671 6.03033 18.5303C6.17098 18.3897 6.25 18.1989 6.25 18C6.25 17.8011 6.17098 17.6103 6.03033 17.4697C5.88968 17.329 5.69891 17.25 5.5 17.25Z" fill="white"/>
</svg>
