<svg width="24" height="24" viewBox="0 0 24 24" fill="none" xmlns="http://www.w3.org/2000/svg">
<path d="M22.2497 9.95765L5.75719 3.84421L5.74219 3.83953C5.47672 3.74812 5.19093 3.73306 4.91732 3.79605C4.64372 3.85904 4.39328 3.99756 4.19451 4.19585C3.99573 4.39413 3.8566 4.64423 3.79293 4.91768C3.72927 5.19113 3.74363 5.47696 3.83438 5.74265C3.83552 5.74777 3.83709 5.75279 3.83907 5.75765L9.95719 22.2502C10.0577 22.5442 10.2483 22.7991 10.5019 22.9787C10.7555 23.1583 11.0593 23.2534 11.37 23.2505H11.3981C11.715 23.248 12.0227 23.1439 12.2759 22.9533C12.5291 22.7627 12.7144 22.4959 12.8044 22.192L12.81 22.1733L14.8575 14.8608L22.17 12.8133L22.1888 12.8077C22.4903 12.7148 22.755 12.5293 22.945 12.2774C23.1351 12.0255 23.2408 11.7201 23.2473 11.4046C23.2537 11.0891 23.1605 10.7796 22.9809 10.5202C22.8013 10.2608 22.5444 10.0646 22.2469 9.95953L22.2497 9.95765ZM14.0475 13.5286C13.9237 13.5634 13.8108 13.6294 13.7199 13.7203C13.6289 13.8113 13.5629 13.9241 13.5281 14.048L11.3719 21.7505L11.3663 21.7345L5.25 5.25046L21.7331 11.3648L21.7481 11.3705L14.0475 13.5286Z" fill="white"/>
</svg>
