<svg width="25" height="24" viewBox="0 0 25 24" fill="none" xmlns="http://www.w3.org/2000/svg">
<path d="M21.5603 7.52251L16.7275 2.6897C16.5887 2.5498 16.4235 2.43889 16.2415 2.36341C16.0594 2.28792 15.8642 2.24938 15.6672 2.25001H8.83279C8.63574 2.24938 8.44052 2.28792 8.25849 2.36341C8.07647 2.43889 7.91126 2.5498 7.77248 2.6897L2.93966 7.52251C2.79977 7.66129 2.68886 7.8265 2.61338 8.00852C2.53789 8.19055 2.49935 8.38577 2.49998 8.58282V15.4172C2.49935 15.6142 2.53789 15.8095 2.61338 15.9915C2.68886 16.1735 2.79977 16.3387 2.93966 16.4775L7.77248 21.3103C7.91126 21.4502 8.07647 21.5611 8.25849 21.6366C8.44052 21.7121 8.63574 21.7506 8.83279 21.75H15.6672C15.8642 21.7506 16.0594 21.7121 16.2415 21.6366C16.4235 21.5611 16.5887 21.4502 16.7275 21.3103L21.5603 16.4775C21.7002 16.3387 21.8111 16.1735 21.8866 15.9915C21.9621 15.8095 22.0006 15.6142 22 15.4172V8.58282C22.0006 8.38577 21.9621 8.19055 21.8866 8.00852C21.8111 7.8265 21.7002 7.66129 21.5603 7.52251ZM20.5 15.4172L15.6672 20.25H8.83279L3.99998 15.4172V8.58282L8.83279 3.75001H15.6672L20.5 8.58282V15.4172Z" fill="white"/>
</svg>
