<svg width="24" height="24" viewBox="0 0 24 24" fill="none" xmlns="http://www.w3.org/2000/svg">
<path d="M21.75 3C21.75 2.80109 21.671 2.61032 21.5303 2.46967C21.3897 2.32902 21.1989 2.25 21 2.25C16.8675 2.25 12.6272 6.91031 10.2722 9.99656C9.43112 9.73898 8.54137 9.68224 7.6744 9.83089C6.80743 9.97954 5.98741 10.3294 5.2802 10.8525C4.57298 11.3755 3.99829 12.0571 3.60228 12.8426C3.20627 13.628 2.99999 14.4954 2.99999 15.375C2.99999 18.27 1.16811 19.5684 1.08093 19.6284C0.947885 19.7183 0.847179 19.8484 0.793618 19.9998C0.740056 20.1511 0.736465 20.3156 0.783373 20.4692C0.830281 20.6227 0.925213 20.7571 1.05421 20.8527C1.1832 20.9482 1.33946 20.9999 1.49999 21H8.62499C9.50461 21 10.372 20.7937 11.1574 20.3977C11.9428 20.0017 12.6245 19.427 13.1475 18.7198C13.6706 18.0126 14.0205 17.1926 14.1691 16.3256C14.3178 15.4586 14.261 14.5689 14.0034 13.7278C17.0906 11.3728 21.75 7.1325 21.75 3ZM8.62499 19.5H3.24655C3.87936 18.6009 4.49999 17.2425 4.49999 15.375C4.49999 14.5592 4.74192 13.7616 5.19518 13.0833C5.64844 12.4049 6.29267 11.8762 7.04642 11.564C7.80017 11.2518 8.62957 11.1701 9.42974 11.3293C10.2299 11.4884 10.9649 11.8813 11.5418 12.4582C12.1187 13.0351 12.5116 13.7701 12.6707 14.5703C12.8299 15.3704 12.7482 16.1998 12.436 16.9536C12.1238 17.7073 11.5951 18.3516 10.9167 18.8048C10.2384 19.2581 9.44084 19.5 8.62499 19.5ZM11.6644 10.6453C11.9856 10.2291 12.3009 9.83687 12.6103 9.46875C13.3675 9.98035 14.0196 10.6324 14.5312 11.3897C14.1625 11.6984 13.7703 12.0138 13.3547 12.3356C12.9176 11.6586 12.3414 11.0824 11.6644 10.6453ZM15.6675 10.3941C15.1013 9.59512 14.4039 8.89778 13.605 8.33156C16.5844 5.09438 18.8316 4.11281 20.1581 3.84C19.8909 5.1675 18.9047 7.41469 15.6675 10.3941Z" fill="white"/>
</svg>
