<svg width="21" height="22" viewBox="0 0 21 22" fill="none" xmlns="http://www.w3.org/2000/svg">
<path d="M20.25 8.81446C20.2506 8.61741 20.212 8.42219 20.1366 8.24016C20.0611 8.05814 19.9502 7.89293 19.8103 7.75415L13.3715 1.31446C13.2322 1.17514 13.0669 1.06462 12.8849 0.989214C12.7028 0.91381 12.5078 0.875 12.3107 0.875C12.1137 0.875 11.9187 0.91381 11.7366 0.989214C11.5546 1.06462 11.3893 1.17514 11.25 1.31446L8.58465 3.97977L3.14715 6.02071C2.90003 6.11287 2.68146 6.26833 2.51331 6.47153C2.34516 6.67472 2.23333 6.91852 2.18903 7.17852L0.0102799 20.252C-0.00769854 20.3594 -0.00204521 20.4695 0.0268466 20.5746C0.0557385 20.6796 0.107175 20.7771 0.177577 20.8603C0.247979 20.9435 0.335655 21.0103 0.434506 21.0561C0.533357 21.102 0.641007 21.1257 0.749967 21.1257C0.791424 21.1255 0.832803 21.1221 0.873717 21.1154L13.9462 18.9366C14.2059 18.8933 14.4496 18.7824 14.6528 18.615C14.8561 18.4477 15.0117 18.2298 15.104 17.9832L17.145 12.5457L19.8103 9.87571C19.9502 9.73679 20.0612 9.57142 20.1367 9.38923C20.2122 9.20704 20.2507 9.01167 20.25 8.81446ZM13.6997 17.4573L2.93622 19.2507L7.37715 14.8098C7.93183 15.1095 8.57586 15.1997 9.19151 15.0636C9.80716 14.9276 10.3533 14.5746 10.73 14.069C11.1068 13.5635 11.289 12.9392 11.2433 12.3104C11.1977 11.6815 10.9272 11.0901 10.4814 10.6443C10.0356 10.1985 9.44415 9.92801 8.81531 9.88235C8.18648 9.83669 7.56221 10.0189 7.05666 10.3956C6.55111 10.7724 6.19805 11.3185 6.06203 11.9342C5.92602 12.5498 6.01613 13.1939 6.3159 13.7485L1.87497 18.1913L3.6684 7.42509L8.81247 5.49665L15.6281 12.3132L13.6997 17.4573ZM7.49997 12.5007C7.49997 12.2782 7.56595 12.0607 7.68956 11.8757C7.81318 11.6907 7.98888 11.5465 8.19445 11.4613C8.40001 11.3762 8.62621 11.3539 8.84444 11.3973C9.06267 11.4407 9.26313 11.5479 9.42046 11.7052C9.5778 11.8625 9.68494 12.063 9.72835 12.2812C9.77176 12.4995 9.74948 12.7257 9.66433 12.9312C9.57918 13.1368 9.43499 13.3125 9.24998 13.4361C9.06498 13.5597 8.84747 13.6257 8.62497 13.6257C8.3266 13.6257 8.04045 13.5072 7.82947 13.2962C7.61849 13.0852 7.49997 12.7991 7.49997 12.5007ZM16.5 11.0645L10.0603 4.62571L12.3103 2.37571L18.75 8.81446L16.5 11.0645Z" fill="white"/>
</svg>
