<svg id="user_1_" data-name="user (1)" xmlns="http://www.w3.org/2000/svg" width="68" height="68" viewBox="0 0 68 68">
  <circle id="Ellipse_188" data-name="Ellipse 188" cx="34" cy="34" r="34" fill="#71e2ef"/>
  <path id="Path_3314" data-name="Path 3314" d="M146.042,119.811l-4.178,5.266-11.677,25.006-16.408,16.088h0a34,34,0,0,0,52.8-25.824Z" transform="translate(-98.667 -103.899)" fill="#38c6d9"/>
  <rect id="Rectangle_1127" data-name="Rectangle 1127" width="11.333" height="11.333" transform="translate(28.333 38.81)" fill="#fcd088"/>
  <rect id="Rectangle_1128" data-name="Rectangle 1128" width="5.742" height="11.333" transform="translate(33.924 38.81)" fill="#ddab62"/>
  <path id="Path_3315" data-name="Path 3315" d="M125.9,339.245l-6.006,1.2a6.542,6.542,0,0,0-5.259,6.415V354.8a33.806,33.806,0,0,0,37.549,0v-7.943a6.542,6.542,0,0,0-5.259-6.415l-6.006-1.2-1.061-1.549a.737.737,0,0,0-.9-.261s-2.784,2.391-5.551,2.392-5.517-2.389-5.517-2.389a.737.737,0,0,0-.9.251Z" transform="translate(-99.414 -292.567)" fill="#d9edec"/>
  <path id="Path_3317" data-name="Path 3317" d="M179.383,109.844a15.479,15.479,0,0,0,.093-1.661c0-7.168-5.484-12.979-12.249-12.979s-12.249,5.811-12.249,12.979a15.518,15.518,0,0,0,.093,1.661c-1.188.309-1.753,2.137-1.263,4.093s1.861,3.31,3.057,3.01a1.386,1.386,0,0,0,.309-.123c2.214,4.443,5.89,8.048,10.053,8.048s7.84-3.6,10.053-8.048a1.381,1.381,0,0,0,.309.123c1.2.3,2.564-1.047,3.057-3.01S180.571,110.152,179.383,109.844Z" transform="translate(-133.227 -82.559)" fill="#ffedb5"/>
  <path id="Path_3318" data-name="Path 3318" d="M267.659,109.844a15.475,15.475,0,0,0,.093-1.661c0-7.168-5.484-12.979-12.249-12.979l-.076,0v29.664l.076,0c4.163,0,7.84-3.6,10.053-8.048a1.38,1.38,0,0,0,.309.123c1.2.3,2.564-1.047,3.057-3.01S268.847,110.152,267.659,109.844Z" transform="translate(-221.502 -82.559)" fill="#e8cf89"/>
  <path id="Path_3319" data-name="Path 3319" d="M166.309,93.672s5.323,5.094,16.2,3.263c0,0,1.055-.265,2.846,1.356,0,0,2.993-4.332,1.219-11.372a49.316,49.316,0,0,1-8.071-3.377c-2.576-1.6-9.444-3.32-10.99,1.488a5.875,5.875,0,0,0-6.353,4.522,16.042,16.042,0,0,0-.117,8.739S163.619,92.069,166.309,93.672Z" transform="translate(-139.197 -71.005)" fill="#494948"/>
  <path id="Path_3320" data-name="Path 3320" d="M268.876,87.058a49.316,49.316,0,0,1-8.071-3.377,12.6,12.6,0,0,0-5.38-1.639V96.967a24.489,24.489,0,0,0,9.387.108s1.055-.265,2.846,1.356C267.658,98.431,270.651,94.1,268.876,87.058Z" transform="translate(-221.501 -71.146)" fill="#282826"/>
  <g id="Group_1539" data-name="Group 1539" transform="translate(15.111 46.939)">
    <path id="Path_3325" data-name="Path 3325" d="M146.264,354.313l-4.756-.887s-4.419,3.557-8.842,3.558-8.853-3.552-8.853-3.552l-4.745.881a6.582,6.582,0,0,0-5.291,6.454v7.992a34.013,34.013,0,0,0,37.778,0v-7.992A6.582,6.582,0,0,0,146.264,354.313Z" transform="translate(-113.777 -353.426)" fill="#273b7a"/>
  </g>
  <path id="Path_3326" data-name="Path 3326" d="M269.1,354.313l-4.756-.887a15.3,15.3,0,0,1-3.264,2,22.218,22.218,0,0,1-5.654,1.621v17.44h.076a33.841,33.841,0,0,0,18.889-5.727v-7.992A6.582,6.582,0,0,0,269.1,354.313Z" transform="translate(-221.502 -306.487)" fill="#121149"/>
</svg>
